<svg width="16" height="26" viewBox="0 0 16 26" fill="none" xmlns="http://www.w3.org/2000/svg">
<path d="M4 0H5C5.552 0 6 0.448 6 1V4C6 4.552 5.552 5 5 5H4C3.448 5 3 4.552 3 4V1C3 0.448 3.448 0 4 0ZM9 0H10C10.552 0 11 0.448 11 1V4C11 4.552 10.552 5 10 5H9C8.448 5 8 4.552 8 4V1C8 0.448 8.448 0 9 0ZM4 21H5C5.552 21 6 21.448 6 22V25C6 25.552 5.552 26 5 26H4C3.448 26 3 25.552 3 25V22C3 21.448 3.448 21 4 21ZM9 21H10C10.552 21 11 21.448 11 22V25C11 25.552 10.552 26 10 26H9C8.448 26 8 25.552 8 25V22C8 21.448 8.448 21 9 21ZM0 22V4C0 3.448 0.448 3 1 3H8.199C10.609 3 12.433 3.465 13.679 4.395C14.925 5.325 15.546 6.688 15.546 8.481C15.546 9.461 15.296 10.325 14.8 11.071C14.3 11.817 13.605 12.364 12.714 12.712C13.73 12.97 14.53 13.485 15.116 14.267C15.703 15.043 16 15.992 16 17.121C16 19.043 15.391 20.5 14.172 21.488C12.953 22.476 11.219 22.98 8.965 23H1C0.448 23 0 22.552 0 22ZM4 11H8.363C10.426 10.965 11.461 10.176 11.461 8.555C11.461 7.649 11.199 6.996 10.676 6.598C10.153 6.2 9.328 6 8.199 6H4V11ZM4 14V20H8.844C9.805 20 12 19.531 12 17.391C12 15.251 10.883 14.027 9 14H4Z" fill="white"/>
</svg>
