<svg width="36" height="38" viewBox="0 0 36 38" fill="none" xmlns="http://www.w3.org/2000/svg">
<path d="M31.0663 23.1908C29.7223 22.4148 28.2103 22.1898 26.7113 22.1378C25.4543 22.0938 23.5783 21.2878 23.5783 19.0008C23.5783 17.2968 24.9593 15.9248 26.7123 15.8638C28.2113 15.8118 29.7233 15.5868 31.0663 14.8108C34.8623 12.6188 36.1633 7.76579 33.9713 3.96979C31.7793 0.173787 26.9263 -1.12721 23.1303 1.06479C20.6743 2.48279 19.1623 5.10279 19.1623 7.93779C19.1623 9.47579 19.7093 10.8908 20.4073 12.2028C20.9943 13.3068 21.2913 15.3558 19.2783 16.5178C17.7813 17.3828 15.9123 16.8348 14.9783 15.3408C14.1903 14.0788 13.2383 12.8968 11.9053 12.1268C8.10934 9.93479 3.25534 11.2358 1.06434 15.0318C-1.12666 18.8278 0.173343 23.6818 3.96934 25.8728C6.42534 27.2908 9.45034 27.2908 11.9053 25.8728C13.2373 25.1038 14.1893 23.9218 14.9773 22.6608C15.6243 21.6248 17.2403 20.3058 19.2773 21.4828C20.7723 22.3468 21.2343 24.2398 20.4053 25.7988C19.7073 27.1108 19.1613 28.5258 19.1613 30.0628C19.1613 34.4458 22.7143 37.9988 27.0973 37.9988C31.4803 37.9988 35.0333 34.4458 35.0333 30.0628C35.0343 27.2278 33.5213 24.6078 31.0663 23.1908Z" fill="url(#paint0_linear_1_1393)"/>
<defs>
<linearGradient id="paint0_linear_1_1393" x1="4.86034" y1="0.811787" x2="30.0883" y2="26.0398" gradientUnits="userSpaceOnUse">
<stop stop-color="#0176D0"/>
<stop offset="1" stop-color="#16538C"/>
</linearGradient>
</defs>
</svg>
