<svg width="44" height="44" viewBox="0 0 44 44" fill="none" xmlns="http://www.w3.org/2000/svg">
<path d="M44 22C44 34.1484 34.1484 44 22 44C9.8516 44 0 34.1484 0 22C0 9.8516 9.8516 0 22 0C34.1484 0 44 9.8516 44 22Z" fill="#2196F3"/>
<path d="M30.4525 21.8537L27.7245 23.4388L20.2731 10.6172C19.9761 10.1057 20.1488 9.44789 20.6636 9.14759L21.5359 8.64049C22.0474 8.34349 22.7052 8.51619 23.0011 9.03099L30.4525 21.8537ZM28.0281 23.9679L30.7561 22.3828L32.3379 25.0987L29.6099 26.6838L28.0281 23.9679ZM10.8241 26.5672L17.4109 15.2966L20.2214 16.9378L13.6346 28.2084L10.8241 26.5672ZM9.11361 32.3125L10.471 27.1689L13.2815 28.8145L9.46561 32.5182C9.40071 32.5875 9.29401 32.5996 9.21261 32.5523C9.12681 32.5017 9.08831 32.4071 9.11361 32.3125ZM17.6386 14.9017L18.5879 13.2858C18.8849 12.7699 19.546 12.5983 20.0575 12.8986L21.0112 13.4574C21.5227 13.7577 21.6943 14.4155 21.394 14.927L20.4491 16.5473L17.6386 14.9017ZM31.9254 25.9358C31.4832 26.1888 30.821 26.5804 30.4305 26.8125C29.7001 27.247 30.2633 28.5274 30.4305 28.8024C31.3754 30.3875 32.3511 30.1642 33.0859 31.2862C33.4896 31.9011 33.3785 32.1717 33.5028 32.3774C33.5545 32.45 33.7129 32.5237 33.7734 32.4379C34.9075 30.8693 34.5764 28.171 33.7514 26.9676C33.3697 26.4044 32.6734 25.5101 31.9254 25.9358ZM35.9008 23.551H31.9815L30.271 20.4105H35.8997V23.551H35.9008ZM27.0788 23.551H16.8565L18.6011 20.4105H25.3342L27.0788 23.551ZM12.0396 23.551H8.06091V20.4105H13.9008L12.0396 23.551Z" fill="white"/>
</svg>
