<svg width="44" height="44" viewBox="0 0 44 44" fill="none" xmlns="http://www.w3.org/2000/svg">
<path d="M22 0C16.1652 0 10.5695 2.31785 6.44365 6.44365C2.31785 10.5695 0 16.1652 0 22C0 27.8348 2.31785 33.4305 6.44365 37.5563C10.5695 41.6821 16.1652 44 22 44C27.8348 44 33.4305 41.6821 37.5563 37.5563C41.6821 33.4305 44 27.8348 44 22C44 16.1652 41.6821 10.5695 37.5563 6.44365C33.4305 2.31785 27.8348 0 22 0V0Z" fill="#FCE0A2"/>
<path d="M13.2866 36.4253C12.5308 36.4253 11.7139 35.8236 11.7139 34.852V9.15777C11.7139 8.1862 12.5302 7.58447 13.2866 7.58447C13.5518 7.58447 13.808 7.65166 14.0477 7.78545L37.1548 20.6323C37.6602 20.9141 37.9617 21.4272 37.9617 22.0058C37.9617 22.5843 37.6596 23.0969 37.1548 23.3775L14.0477 36.2249C13.808 36.3575 13.5518 36.4253 13.2866 36.4253Z" fill="#28B3EA"/>
<path d="M12.3613 7.80428L13.7295 7.70142L30.9549 17.2096L26.2939 21.8349L12.3613 7.80428Z" fill="#52E895"/>
<path d="M37.7946 21.0636L30.955 17.2095L26.2939 21.8348L31.0055 26.6142L37.5413 23.1197L37.7946 21.0636Z" fill="#F9E65C"/>
<path d="M12.1587 35.9685L26.294 21.835L31.0056 26.6143L13.3746 36.4305L12.1587 35.9685Z" fill="#F15B6C"/>
<path d="M13.2863 8.00113C13.4801 8.00113 13.668 8.05108 13.8446 8.14978L36.9517 20.9966C37.3234 21.2029 37.5451 21.5799 37.5451 22.005C37.5451 22.4302 37.3234 22.8077 36.9517 23.0141L13.8446 35.8609C13.6674 35.9596 13.4795 36.0095 13.2863 36.0095C12.7303 36.0095 12.1298 35.5671 12.1298 34.8524V9.15762C12.1298 8.44351 12.7303 8.00113 13.2863 8.00113ZM13.2863 7.1687C12.2475 7.1687 11.2974 8.00054 11.2974 9.15822V34.8524C11.2974 36.0095 12.2475 36.8419 13.2863 36.8419C13.6074 36.8419 13.9368 36.7623 14.2489 36.5886L37.3561 23.7418C38.7177 22.9849 38.7177 21.0263 37.3561 20.2694L14.2489 7.4214C13.9368 7.24778 13.6074 7.1687 13.2863 7.1687Z" fill="#472B29"/>
<path d="M31.1702 26.8918C31.1321 26.8918 31.0935 26.8776 31.0643 26.8478L21.1453 16.8664C21.0876 16.8081 21.0876 16.7142 21.1465 16.6559C21.2042 16.5982 21.2993 16.5982 21.357 16.6571L31.276 26.6385C31.3337 26.6968 31.3337 26.7908 31.2748 26.849C31.2463 26.877 31.2076 26.8918 31.1702 26.8918ZM20.0673 15.7206C20.0292 15.7206 19.9906 15.7063 19.9615 15.6766L17.9012 13.6032C17.8435 13.545 17.8435 13.451 17.9024 13.3928C17.9601 13.3351 18.0552 13.3351 18.1129 13.3939L20.1731 15.4673C20.2308 15.5256 20.2308 15.6195 20.1719 15.6778C20.1434 15.7063 20.1053 15.7206 20.0673 15.7206ZM17.1871 12.8219C17.149 12.8219 17.1104 12.8077 17.0812 12.7779L12.4452 8.11395C12.3875 8.05568 12.3875 7.96173 12.4464 7.90346C12.5035 7.84578 12.5986 7.84579 12.6569 7.90465L17.2929 12.5687C17.3506 12.6269 17.3506 12.7209 17.2917 12.7791C17.2632 12.8077 17.2251 12.8219 17.1871 12.8219ZM12.3613 35.8345C12.3233 35.8345 12.2852 35.8203 12.2561 35.7911C12.1978 35.7323 12.1978 35.6383 12.2561 35.5807L17.3952 30.463C17.4535 30.4047 17.5474 30.4047 17.6057 30.463C17.6639 30.5218 17.6639 30.6158 17.6057 30.6735L12.4666 35.7911C12.4375 35.8197 12.3994 35.8345 12.3613 35.8345Z" fill="#472B29"/>
<path d="M18.728 29.4939C18.69 29.4939 18.6519 29.4796 18.6228 29.4505C18.5645 29.3916 18.5645 29.2977 18.6228 29.24L30.9892 16.9236C31.048 16.8653 31.142 16.8653 31.1997 16.9236C31.2579 16.9825 31.2579 17.0764 31.1997 17.1341L18.8333 29.4505C18.8042 29.4796 18.7661 29.4939 18.728 29.4939Z" fill="#472B29"/>
</svg>
