<svg width="44" height="46" viewBox="0 0 44 46" fill="none" xmlns="http://www.w3.org/2000/svg">
<path d="M22 45.1C34.1503 45.1 44 35.2503 44 23.1C44 10.9497 34.1503 1.10001 22 1.10001C9.84974 1.10001 0 10.9497 0 23.1C0 35.2503 9.84974 45.1 22 45.1Z" fill="#BDBDBD"/>
<path d="M22 44C34.1503 44 44 34.1503 44 22C44 9.84974 34.1503 0 22 0C9.84974 0 0 9.84974 0 22C0 34.1503 9.84974 44 22 44Z" fill="#ECEFF1"/>
<path d="M14.3343 11.1441L14.3552 11.6446C14.6907 11.2552 15.1428 11.0605 15.7126 11.0605C16.3528 11.0605 16.7884 11.3025 17.0205 11.7865C17.1723 11.5698 17.3703 11.3949 17.6145 11.2607C17.8587 11.1265 18.148 11.0605 18.4802 11.0605C19.4834 11.0605 19.9949 11.5852 20.0114 12.6324V15.6552H19.2282V12.6775C19.2282 12.3552 19.1545 12.1143 19.0049 11.9537C18.8553 11.7942 18.6045 11.7139 18.2514 11.7139C17.961 11.7139 17.7201 11.7997 17.5276 11.9702C17.3362 12.1418 17.224 12.3717 17.1943 12.6599V15.6541H16.4078V12.6984C16.4078 12.0428 16.0822 11.7139 15.431 11.7139C14.9173 11.7139 14.5664 11.9295 14.3772 12.3596V15.6541H13.5951V11.1419H14.3343V11.1441ZM24.9779 14.6014V12.5246C24.9669 12.0681 24.8008 11.7106 24.484 11.451C24.1672 11.1914 23.7272 11.0616 23.1662 11.0616C22.8131 11.0616 22.4886 11.1232 22.1927 11.2453C21.8968 11.3674 21.6636 11.5335 21.492 11.7436C21.3193 11.9537 21.2335 12.1715 21.2335 12.3959H22.0695C22.0695 12.199 22.1696 12.0307 22.3709 11.8921C22.5722 11.7535 22.8208 11.6842 23.1178 11.6842C23.4566 11.6842 23.7118 11.7645 23.8867 11.924C24.0605 12.0846 24.1474 12.2991 24.1474 12.5686V12.9228H23.3378C22.6404 12.9228 22.0981 13.0526 21.7131 13.3122C21.3281 13.5718 21.1356 13.937 21.1356 14.4067C21.1356 14.7939 21.2885 15.1118 21.5965 15.3637C21.9034 15.6156 22.2972 15.741 22.7757 15.741C23.3125 15.741 23.7745 15.5551 24.1606 15.1822C24.1903 15.4099 24.2299 15.5683 24.2772 15.6574H25.1495V15.5903C25.0351 15.345 24.9779 15.0161 24.9779 14.6014ZM24.1463 14.3935C24.0407 14.5937 23.8724 14.7565 23.637 14.8808C23.4038 15.0062 23.1563 15.0678 22.8956 15.0678C22.6228 15.0678 22.3995 14.9996 22.2257 14.8632C22.0508 14.7268 21.965 14.5387 21.965 14.2956C21.965 13.7423 22.4743 13.4662 23.494 13.4662H24.1463V14.3935ZM28.1316 15.1096C28.4187 15.1096 28.6684 15.026 28.884 14.8588C29.0985 14.6927 29.2173 14.4837 29.2404 14.234H30.0005C29.9862 14.4925 29.8927 14.7378 29.7222 14.9721C29.5517 15.2064 29.324 15.3912 29.038 15.5309C28.752 15.6706 28.4506 15.7388 28.1316 15.7388C27.4914 15.7388 26.9821 15.5342 26.6026 15.1239C26.2242 14.7136 26.035 14.1537 26.035 13.442V13.3122C26.035 12.8733 26.1197 12.4828 26.2869 12.1407C26.4552 11.7986 26.6961 11.5335 27.0107 11.3443C27.3253 11.1551 27.6971 11.0605 28.1261 11.0605C28.653 11.0605 29.0919 11.2123 29.4406 11.5148C29.7893 11.8173 29.9763 12.2111 29.9994 12.6951H29.2393C29.2162 12.4036 29.1007 12.1638 28.8939 11.9757C28.6871 11.7876 28.4308 11.6941 28.1272 11.6941C27.7191 11.6941 27.4023 11.8349 27.1779 12.1176C26.9535 12.4003 26.8402 12.8084 26.8402 13.343V13.4882C26.8402 14.0085 26.9524 14.4078 27.1757 14.6894C27.3979 14.9699 27.7169 15.1096 28.1316 15.1096ZM22.1168 26.2834C22.1168 27.6617 21.8495 28.8651 21.3138 29.8925C20.7781 30.9199 20.0191 31.7031 19.039 32.2454C18.0567 32.7866 16.9127 33.0572 15.6037 33.0572C14.3255 33.0572 13.1914 32.7855 12.2014 32.241C11.2136 31.6965 10.4447 30.9199 9.89912 29.9123C9.35242 28.9036 9.07082 27.7354 9.05762 26.4088V25.3935C9.05762 24.0416 9.32822 22.8459 9.87052 21.8086C10.4139 20.7713 11.1806 19.9771 12.1739 19.4271C13.1661 18.876 14.3024 18.601 15.5806 18.601C16.8819 18.601 18.0292 18.8738 19.0214 19.4183C20.0147 19.9628 20.7781 20.7515 21.3138 21.7855C21.8495 22.8195 22.1168 24.0229 22.1168 25.3946V26.2834ZM20.0631 25.3869C20.0631 23.7182 19.6 22.5665 18.8267 21.6744C18.0534 20.7823 16.971 20.3357 15.5806 20.3357C14.2265 20.3357 13.1617 20.7823 12.3862 21.6744C11.6085 22.5665 11.1333 23.7589 11.1113 25.3429V26.3769C11.1113 27.9939 11.5788 28.9993 12.3642 29.9233C13.1474 30.8473 14.2276 31.3104 15.6037 31.3104C16.9875 31.3104 18.0567 30.8737 18.8157 30.0014C19.5747 29.128 20.0411 28.061 20.0631 26.4308V25.3869ZM29.1909 24.7456C27.9611 24.4156 25.9789 24.2187 25.9789 22.4026C25.9789 21.6865 26.6279 20.2928 28.9214 20.2928C31.4547 20.2928 31.9662 21.8856 32.0168 22.6226H33.9825C33.9418 21.9362 33.8813 21.296 33.4897 20.7075C33.053 20.0508 32.4359 19.536 31.6406 19.162C30.8442 18.788 29.9378 18.601 28.9214 18.601C25.6269 18.601 23.9769 20.526 23.9769 22.4466C23.9769 23.4256 24.2673 24.4827 25.0296 25.1493C25.7908 25.8159 26.9645 26.158 28.6882 26.5925C30.0676 26.9401 32.2137 27.291 32.2137 29.3084C32.2137 29.997 31.1555 31.3808 29.0226 31.3808C26.4167 31.3808 25.6225 29.733 25.5752 28.9762H23.6084C23.6436 29.7165 24.0825 33.0572 29.0226 33.0572C33.2972 33.0572 34.2454 30.2214 34.2454 29.0818C34.2465 25.3605 30.4207 25.0745 29.1909 24.7456Z" fill="#616161"/>
</svg>
