<svg width="832" height="832" viewBox="0 0 832 832" fill="none" xmlns="http://www.w3.org/2000/svg">
<path d="M137.695 -5.99701e-06L137.695 832L138.695 832L138.695 -5.99701e-06L137.695 -5.99701e-06ZM270.291 -5.99701e-06L270.291 832L271.291 832L271.291 -5.99701e-06L270.291 -5.99701e-06ZM405.8 -5.99701e-06L405.8 832L406.8 832L406.8 -5.99701e-06L405.8 -5.99701e-06ZM539.853 -5.997e-06L539.853 832L540.853 832L540.853 -5.997e-06L539.853 -5.997e-06ZM694.304 -5.99701e-06L694.304 832L695.304 832L695.304 -5.99701e-06H694.304ZM832 137.695L-6.7054e-05 137.695L-6.70977e-05 138.695L832 138.695L832 137.695ZM832 270.291L-7.28499e-05 270.291L-7.28937e-05 271.291L832 271.291L832 270.291ZM832 405.8L-7.87733e-05 405.8L-7.8817e-05 406.8L832 406.8L832 405.8ZM832 539.853L-8.46329e-05 539.853L-8.46766e-05 540.853L832 540.853L832 539.853ZM832 694.305L-9.13842e-05 694.305L-9.14279e-05 695.305L832 695.305L832 694.305Z" fill="url(#paint0_radial_1_297)" fill-opacity="0.46"/>
<defs>
<radialGradient id="paint0_radial_1_297" cx="0" cy="0" r="1" gradientUnits="userSpaceOnUse" gradientTransform="translate(416 416) rotate(-180) scale(416)">
<stop stop-color="#BFA3FF" stop-opacity="0.38"/>
<stop offset="1" stop-color="#0D051F" stop-opacity="0.22"/>
</radialGradient>
</defs>
</svg>
